#!OML:ASF H:\ManfredETheater\Project 1\Capture day 1\Session 1\subject.ASF
:FULLY-SPECIFIED
:DEGREES
266
root 1.91761 14.3993 14.2248 33.648 -13.2105 -2.94009
lowerback 30.0774 -2.95466 6.26611
upperback 3.04303 -1.16289 4.59867
thorax -12.3884 -0.758783 1.99974
lowerneck -28.3565 24.7083 4.75667
upperneck -2.62622 51.5222 -4.74815
head 37.9359 -45.0683 139.607
rclavicle 5.76476e-015 -4.21423e-014
rhumerus -45.2017 -14.2711 -69.5299
rradius 46.443
rwrist -9.4656
rhand -25.4047 1.3758
rfingers 7.12502
rthumb 1.12071 -28.601
lclavicle 5.76476e-015 -4.21423e-014
lhumerus -29.822 -19.0979 102.165
lradius 100.613
lwrist -10.5595
lhand -34.7943 -12.3404
lfingers 7.12502
lthumb -7.94626 17.4903
rfemur -58.9665 -9.5012 14.3867
rtibia 99.5418
rfoot -13.2759 -14.0516
rtoes -35.5398
lfemur -52.816 14.4062 -33.7474
ltibia 84.4301
lfoot -29.0326 -22.3541
ltoes 21.79
267
root 1.83419 14.4226 14.571 33.6364 -12.3305 -2.33984
lowerback 28.909 -3.00437 5.79783
upperback 3.19212 -1.47021 4.53878
thorax -12.4655 -0.83437 2.4595
lowerneck -28.2027 24.5742 4.92185
upperneck -2.64064 51.4878 -4.72735
head 37.9307 -45.0848 139.761
rclavicle 1.35174e-014 -3.61788e-014
rhumerus -46.3689 -14.5121 -68.7679
rradius 46.4286
rwrist -8.79742
rhand -25.4237 1.73112
rfingers 7.12502
rthumb 1.10236 -28.2458
lclavicle 1.35174e-014 -3.61788e-014
lhumerus -30.1369 -19.9657 102.578
lradius 101.838
lwrist -10.326
lhand -34.7479 -12.8416
lfingers 7.12502
lthumb -7.90142 16.9907
rfemur -62.517 -9.63772 14.4038
rtibia 100.253
rfoot -14.2365 -13.8246
rtoes -36.011
lfemur -50.5886 14.4017 -33.403
ltibia 82.8658
lfoot -28.3989 -23.5009
ltoes 22.0546
268
root 1.75548 14.4536 14.9319 33.4623 -11.4427 -1.74838
lowerback 28.0285 -3.0975 5.45145
upperback 2.95608 -1.75331 4.55166
thorax -12.2736 -0.943236 2.74654
lowerneck -28.0419 24.4079 5.05293
upperneck -2.65376 51.4245 -4.70905
head 37.9321 -45.144 139.914
rclavicle -1.2921e-014 -1.63003e-014
rhumerus -47.5268 -14.6441 -67.9839
rradius 46.4911
rwrist -8.50723
rhand -25.5244 2.05229
rfingers 7.12502
rthumb 1.00506 -27.9251
lclavicle -1.2921e-014 -1.63003e-014
lhumerus -30.4348 -20.9196 102.989
lradius 102.965
lwrist -10.1562
lhand -34.7518 -13.4853
lfingers 7.12502
lthumb -7.90522 16.3469
rfemur -65.7404 -9.75675 14.3228
rtibia 100.456
rfoot -14.9215 -13.5105
rtoes -36.5574
lfemur -48.0285 14.3246 -32.9344
ltibia 81.066
lfoot -27.6288 -24.6248
ltoes 22.2692
269
root 1.6819 14.4914 15.307 33.1267 -10.5325 -1.18094
lowerback 27.3313 -3.22652 5.20879
upperback 2.75988 -2.03396 4.56877
thorax -12.1264 -1.05724 2.98109
lowerneck -27.8702 24.2122 5.14332
upperneck -2.66613 51.3489 -4.69951
head 37.9457 -45.2474 140.062
rclavicle -5.36719e-014 1.19271e-015
rhumerus -48.6352 -14.6395 -67.1948
rradius 46.5996
rwrist -8.58708
rhand -25.6201 2.33769
rfingers 7.12502
rthumb 0.912687 -27.6401
lclavicle -5.36719e-014 1.19271e-015
lhumerus -30.729 -21.9053 103.393
lradius 103.983
lwrist -10.0877
lhand -34.7868 -14.2403
lfingers 7.12502
lthumb -7.939 15.5906
rfemur -68.5859 -9.8723 14.1638
rtibia 100.155
rfoot -15.3975 -13.1584
rtoes -37.1234
lfemur -45.1468 14.1411 -32.3297
ltibia 79.0252
lfoot -26.6738 -25.7169
ltoes 22.4704
270
root 1.61335 14.5346 15.6952 32.6564 -9.5965 -0.6662
lowerback 26.7985 -3.3883 5.08809
upperback 2.6001 -2.30595 4.59992
thorax -12.0224 -1.17365 3.16279
lowerneck -27.6863 23.9855 5.18413
upperneck -2.67635 51.2675 -4.70154
head 37.975 -45.3964 140.204
rclavicle 5.96354e-015 3.85642e-014
rhumerus -49.6656 -14.5042 -66.3991
rradius 46.7252
rwrist -8.93949
rhand -25.6244 2.59995
rfingers 7.12502
rthumb 0.908532 -27.3779
lclavicle 5.96354e-015 3.85642e-014
lhumerus -31.0352 -22.8813 103.787
lradius 104.879
lwrist -10.1178
lhand -34.837 -15.0725
lfingers 7.12502
lthumb -7.98745 14.7566
rfemur -71.0413 -9.97543 13.962
rtibia 99.3633
rfoot -15.7457 -12.8019
rtoes -37.6881
lfemur -41.9922 13.8293 -31.5824
ltibia 76.751
lfoot -25.502 -26.7584
ltoes 22.6196
271
root 1.54992 14.5831 16.097 32.0955 -8.64604 -0.223786
lowerback 26.3764 -3.57567 5.09487
upperback 2.47042 -2.56432 4.64954
thorax -11.944 -1.2901 3.29044
lowerneck -27.487 23.7303 5.1745
upperneck -2.68383 51.1855 -4.71623
head 38.023 -45.5923 140.336
rclavicle -4.45278e-014 2.22639e-014
rhumerus -50.5931 -14.2563 -65.5879
rradius 46.8268
rwrist -9.39365
rhand -25.492 2.86471
rfingers 7.12502
rthumb 1.03636 -27.1125
lclavicle -4.45278e-014 2.22639e-014
lhumerus -31.3716 -23.8076 104.168
lradius 105.649
lwrist -10.2271
lhand -34.8787 -15.928
lfingers 7.12502
lthumb -8.02774 13.8995
rfemur -73.1253 -10.0583 13.7457
rtibia 98.0942
rfoot -15.9854 -12.4702
rtoes -38.2244
lfemur -38.6271 13.3715 -30.7143
ltibia 74.2524
lfoot -24.0919 -27.7049
ltoes 22.6849
272
root 1.49147 14.6359 16.5118 31.4866 -7.71455 0.142355
lowerback 26.018 -3.77337 5.20449
upperback 2.36356 -2.80187 4.71441
thorax -11.876 -1.40214 3.37032
lowerneck -27.2774 23.4521 5.11826
upperneck -2.69214 51.1051 -4.74526
head 38.0804 -45.8262 140.469
rclavicle 4.77083e-014 9.93923e-015
rhumerus -51.3867 -13.9315 -64.7526
rradius 46.8602
rwrist -9.7704
rhand -25.2144 3.14518
rfingers 7.12502
rthumb 1.30445 -26.8306
lclavicle 4.77083e-014 9.93923e-015
lhumerus -31.7542 -24.6569 104.534
lradius 106.286
lwrist -10.3707
lhand -34.8947 -16.7435
lfingers 7.12502
lthumb -8.04317 13.0834
rfemur -74.8708 -10.1052 13.518
rtibia 96.3686
rfoot -16.1419 -12.1681
rtoes -38.704
lfemur -35.1252 12.7582 -29.7772
ltibia 71.5454
lfoot -22.3693 -28.5146
ltoes 22.5989
273
root 1.43599 14.6914 16.9379 30.8804 -6.88358 0.458962
lowerback 25.6766 -3.93808 5.30986
upperback 2.26236 -2.99801 4.78677
thorax -11.8098 -1.49541 3.44548
lowerneck -27.0511 23.1534 5.01895
upperneck -2.6953 51.0248 -4.78241
head 38.1464 -46.0909 140.6
rclavicle 6.95746e-014 -3.65764e-014
rhumerus -52.0352 -13.5536 -63.8805
rradius 46.7987
rwrist -9.92691
rhand -24.8217 3.41187
rfingers 7.12502
rthumb 1.68375 -26.5612
lclavicle 6.95746e-014 -3.65764e-014
lhumerus -32.2156 -25.4091 104.896
lradius 106.787
lwrist -10.4907
lhand -34.8608 -17.4546
lfingers 7.12502
lthumb -8.01043 12.3736
rfemur -76.3563 -10.0654 13.2397
rtibia 94.2177
rfoot -16.2139 -11.8888
rtoes -39.1191
lfemur -31.5861 12.0065 -28.8713
ltibia 68.6525
lfoot -20.2335 -29.1454
ltoes 22.2378
274
root 1.38364 14.7489 17.3756 30.2804 -6.17535 0.733516
lowerback 25.3507 -4.06452 5.39411
upperback 2.16317 -3.1512 4.85911
thorax -11.7485 -1.56847 3.51702
lowerneck -26.9103 22.8182 4.91046
upperneck -2.06775 51.7207 -4.66061
head 38.0239 -45.5433 140.818
rclavicle 2.34566e-014 -2.54444e-014
rhumerus -52.5268 -13.131 -62.9787
rradius 46.6273
rwrist -9.80775
rhand -24.3853 3.67474
rfingers 7.12502
rthumb 2.10523 -26.2946
lclavicle 2.34566e-014 -2.54444e-014
lhumerus -32.774 -26.0512 105.257
lradius 107.146
lwrist -10.54
lhand -34.7709 -18.0102
lfingers 7.12502
lthumb -7.92365 11.8213
rfemur -77.5664 -9.94402 12.9083
rtibia 91.6679
rfoot -16.2028 -11.6039
rtoes -39.4913
lfemur -28.0278 11.113 -28.0416
ltibia 65.5902
lfoot -17.6137 -29.5459
ltoes 21.5732
275
root 1.33381 14.8068 17.8235 29.7014 -5.63931 1.00914
lowerback 25.0198 -4.13192 5.37975
upperback 2.06309 -3.25924 4.91702
thorax -11.6807 -1.61698 3.61046
lowerneck -26.6584 22.4992 4.7635
upperneck -2.08719 51.6262 -4.72183
head 38.0999 -45.8793 140.958
rclavicle 6.36111e-015 -2.38542e-014
rhumerus -52.8324 -12.6874 -62.0544
rradius 46.3196
rwrist -9.42152
rhand -23.9556 3.89732
rfingers 7.12502
rthumb 2.52019 -26.0675
lclavicle 6.36111e-015 -2.38542e-014
lhumerus -33.4321 -26.5763 105.619
lradius 107.353
lwrist -10.4936
lhand -34.6097 -18.3515
lfingers 7.12502
lthumb -7.76805 11.4858
rfemur -78.5324 -9.73365 12.4764
rtibia 88.8062
rfoot -16.1049 -11.2766
rtoes -39.8431
lfemur -24.5267 10.0705 -27.384
ltibia 62.4654
lfoot -14.4963 -29.669
ltoes 20.5621
